<svg width="420" height="273" viewBox="0 0 420 273" fill="none" xmlns="http://www.w3.org/2000/svg">
<path d="M419.854 196.204C417.839 184.316 397.477 186.128 392.121 175.325C389.115 169.256 392.347 161.983 396.243 156.429C400.139 150.876 404.933 145.322 405.269 138.55C405.605 131.777 398.07 124.622 392.386 128.309C385.203 132.972 374.756 131.707 368.885 125.466C363.365 119.599 354.76 117.459 346.726 118.022C338.692 118.584 331.04 121.513 323.545 124.466C320.664 125.599 317.58 126.755 314.558 126.114C307.578 124.63 306.032 115.53 305.72 108.398C305.111 94.1583 303.448 79.9575 300.754 65.9597C299.122 57.4689 296.475 48.1423 289.058 43.7055C281.641 39.2687 269.133 45.0022 271.17 53.3993C276.402 74.9505 275.707 97.9077 269.172 119.1C260.708 113.069 249.512 113.28 239.244 111.671C228.977 110.062 217.484 104.641 215.821 94.3848C212.979 76.833 196.95 62.3275 179.21 61.2496C189.509 51.009 196.325 37.3159 198.277 22.912C199.167 16.3428 198.855 9.01582 194.529 3.98538C190.204 -1.04505 180.764 -1.66996 177.625 4.17284C167.686 22.6699 154.475 39.4093 138.782 53.3602C131.403 59.9216 123.377 65.9832 117.74 74.0912C104.053 93.7677 107.504 120.552 114.906 143.346C110.268 133.597 103.537 124.849 95.308 117.865C90.9044 114.124 85.845 110.804 80.1219 109.999C74.3988 109.203 67.9339 111.53 65.3261 116.686C61.9376 123.388 66.0757 131.402 70.7994 137.245C75.5231 143.088 81.2696 149.095 81.418 156.601C70.6979 154.219 59.6343 153.399 48.6878 154.18C33.8139 155.242 18.1984 159.874 8.74317 171.411C-1.13367 183.472 -2.20333 201.157 3.33238 215.732C8.86809 230.308 20.1347 242.072 32.713 251.273C43.9797 259.514 57.1592 266.193 71.1195 266.052C77.5375 265.99 84.8924 263.646 87.1098 257.624C89.8347 250.203 83.0654 242.712 76.1946 238.815C65.8024 232.925 53.8721 230.246 43.3082 224.661C32.7521 219.076 23.0704 209.077 23.3359 197.126C23.3984 194.392 24.0308 191.572 25.7407 189.432C28.2704 186.268 32.5413 185.214 36.4998 184.355C48.0709 181.839 59.9466 179.301 71.666 180.965C83.3933 182.628 95.1362 189.393 99.3602 200.461C105.146 215.639 122.479 223.426 138.68 224.528C154.881 225.629 170.989 221.685 187.213 221.075C213.924 220.068 240.33 228.098 267.048 227.348C280.844 226.957 294.687 224.231 308.351 226.192C322.007 228.152 336.108 236.385 339.363 249.797C340.839 255.89 340.074 262.803 343.697 267.927C348.928 275.316 361.42 274.239 367.167 267.247C372.913 260.249 372.718 249.805 369.064 241.517C365.418 233.23 358.891 226.613 352.512 220.193C370.04 220.528 387.623 217.912 404.293 212.475C412.108 209.929 421.236 204.281 419.862 196.181L419.854 196.204ZM365.941 166.24C366.308 166.178 366.691 166.154 367.065 166.178C367.792 166.217 368.635 166.85 368.932 167.521C369.095 167.889 369.259 168.279 369.361 168.576C369.97 170.271 367.815 172.029 366.113 171.443C365.09 171.091 364.395 170.177 364.098 169.123C363.732 167.81 364.598 166.475 365.933 166.248L365.941 166.24ZM358.586 138.612C358.961 138.589 359.336 138.612 359.711 138.667C360.429 138.776 361.202 139.495 361.428 140.19C361.553 140.573 361.678 140.979 361.748 141.283C362.186 143.033 359.859 144.564 358.227 143.799C357.243 143.346 356.65 142.361 356.463 141.283C356.228 139.948 357.228 138.698 358.586 138.612ZM345.93 152.985C345.048 150.829 344.891 148.439 345.024 146.111C345.11 144.58 345.672 143.072 346.492 141.713C347.398 140.206 348.702 138.987 350.185 138.057C351.341 137.331 352.863 136.433 354.128 135.87C354.526 135.761 355.01 135.683 355.291 135.987C355.651 136.386 355.291 137.011 354.971 137.44C353.191 139.823 353.542 144.103 354.206 147.47C354.956 151.251 357.837 154.274 361.592 155.117C362.498 155.32 363.271 155.461 363.724 155.547C363.935 155.586 364.028 155.828 363.903 156C363.7 156.289 363.38 156.703 363.044 157.086C360.452 159.327 356.759 160.226 353.433 159.429C350.099 158.632 347.218 156.156 345.922 152.985H345.93ZM373.007 183.003C372.828 183.308 372.562 183.753 372.265 184.175C369.915 186.667 366.332 187.94 362.943 187.487C359.554 187.034 356.431 184.862 354.815 181.839C353.722 179.785 353.316 177.418 353.214 175.091C353.144 173.56 353.55 171.997 354.229 170.56C354.971 168.974 356.15 167.623 357.532 166.545C358.61 165.701 360.038 164.655 361.233 163.967C361.616 163.819 362.092 163.694 362.396 163.967C362.795 164.327 362.506 164.983 362.232 165.444C360.702 167.998 361.491 172.216 362.498 175.497C363.622 179.184 366.8 181.894 370.626 182.355C371.547 182.464 372.328 182.519 372.789 182.558C372.999 182.574 373.116 182.808 373.015 182.995L373.007 183.003ZM388.185 155.93C385.851 156.383 384.274 153.547 385.789 151.711C388.896 147.962 391.598 143.885 393.838 139.557C394.51 138.268 395.213 136.87 396.477 136.167C398.094 135.269 400.108 136.487 400.085 138.339C400.061 139.995 399.46 141.635 398.765 143.158C397.157 146.704 395.025 150.009 392.456 152.938C391.301 154.25 389.95 155.555 388.24 155.914C388.225 155.914 388.209 155.914 388.185 155.922V155.93ZM413.92 198.095C411.047 200.993 407.385 203.031 403.582 204.531C400.116 205.898 396.485 206.859 392.792 207.382C391.098 207.624 389.482 206.312 389.552 204.601C389.56 204.375 389.599 204.148 389.661 203.93C390.122 202.406 391.676 201.407 393.245 201.196C398.265 200.516 403.122 198.68 407.322 195.861C408.884 194.814 410.539 193.572 412.444 193.775C414.552 193.994 415.411 196.587 413.92 198.095Z" fill="#260807"/>
</svg>
