<svg width="386" height="222" viewBox="0 0 386 222" fill="none" xmlns="http://www.w3.org/2000/svg">
<path d="M384.779 89.0407C380.239 67.4013 360.372 48.706 338.191 49.3385C326.494 49.6665 318.559 38.2338 311.299 29.0891C300.174 15.0794 284.877 3.47484 267.166 0.671323C248.905 -2.2181 230.261 4.54471 214.855 14.7201C199.449 24.8956 186.567 38.3431 172.925 50.7676C155.817 66.347 137.337 80.4427 117.768 92.8282C120.449 93.3123 120.967 93.3123 124.048 92.7344C116.584 96.1939 107.238 94.8195 103.255 87.6428C100.425 82.5434 100.448 76.2023 96.4107 71.587C94.9524 69.9158 92.9453 68.7445 90.7343 68.5727C86.4848 68.2447 84.509 71.384 82.792 74.2812C73.2503 90.337 63.7086 106.401 54.1669 122.456C50.8034 128.118 47.4242 135.107 49.1647 141.066C50.7171 146.376 48.1455 152.53 43.112 154.857L11.2959 169.546C5.75273 172.1 -0.739083 176.285 0.0684732 182.306C0.860348 188.171 8.04211 190.631 13.9773 190.858C26.6943 191.342 39.5289 187.172 49.5411 179.347C55.3429 174.817 66.1705 172.217 73.4149 173.576C81.1769 175.028 88.3194 178.699 95.3366 182.314C79.648 184.79 65.065 193.7 55.829 206.585C54.4727 208.475 53.6573 210.74 53.7827 213.059C54.1826 220.697 64.2261 222.641 71.6744 221.829C111.096 217.542 145.193 193.809 181.667 178.3C195.152 172.568 209.077 167.922 222.977 163.291C244.311 172.709 269.204 161.315 287.19 146.509C306.932 130.258 323.428 108.595 328.156 83.5898C328.72 80.6223 331.66 78.3498 334.671 78.6856C344.903 79.8336 354.139 87.307 357.385 97.0295C362.951 113.702 351.01 131.624 336.192 141.16C321.382 150.695 303.717 154.896 288.358 163.541C283.082 166.508 277.601 170.671 278.174 177.433C278.542 181.791 281.412 185.493 285.347 187.421C293.595 191.467 302.361 188.679 310.358 185.571C331.033 177.527 351.144 166.649 365.884 150.125C380.623 133.6 389.334 110.672 384.794 89.0328L384.779 89.0407ZM80.3144 93.7731C81.8355 89.1188 83.7564 84.5894 86.0458 80.2553C86.7984 78.8262 87.8333 77.2565 89.4485 77.0925C90.9538 76.9363 92.3964 78.3889 92.2318 79.8882C92.1847 80.3177 92.0279 80.7316 91.8711 81.1377C89.9659 86.1044 88.0607 91.0711 86.1555 96.0377C85.395 98.0135 83.921 100.395 81.8668 99.9658C80.8946 99.7627 80.1655 98.9506 79.8832 98.0057C79.452 96.5844 79.8675 95.1475 80.3144 93.7887V93.7731ZM82.7293 123.893C82.4627 124.19 82.1569 124.456 81.8355 124.682C81.2004 125.127 80.0792 125.151 79.3971 124.791C79.0208 124.596 78.6288 124.377 78.3387 124.198C76.7157 123.19 77.3586 120.317 79.1698 119.684C80.2596 119.309 81.4356 119.614 82.3765 120.293C83.5447 121.144 83.7015 122.823 82.7293 123.893ZM98.5825 123.885C98.2375 125.291 97.7357 127.095 97.1869 128.454C96.9595 128.829 96.6459 129.25 96.2147 129.219C95.6423 129.18 95.4542 128.446 95.3836 127.876C94.9837 124.752 91.5418 121.761 88.5468 119.684C85.1833 117.357 80.7457 117.185 77.2489 119.309C76.4021 119.825 75.7122 120.285 75.3123 120.551C75.1241 120.676 74.8732 120.559 74.8419 120.34C74.787 119.973 74.7243 119.419 74.6929 118.88C75.0144 115.264 77.1705 111.859 80.3066 110.016C83.4427 108.165 87.4727 107.931 90.8127 109.384C93.0785 110.375 94.9681 112.078 96.591 113.944C97.6573 115.178 98.3394 116.74 98.7236 118.372C99.147 120.184 99.0529 122.074 98.606 123.878L98.5825 123.885ZM111.213 137.731C110.947 138.028 110.641 138.294 110.319 138.52C109.684 138.965 108.563 138.989 107.881 138.629C107.505 138.434 107.113 138.215 106.823 138.036C105.2 137.028 105.843 134.155 107.654 133.522C108.744 133.147 109.92 133.452 110.86 134.131C112.029 134.982 112.185 136.661 111.213 137.731ZM127.066 137.723C126.721 139.129 126.22 140.933 125.671 142.292C125.444 142.667 125.13 143.088 124.699 143.057C124.126 143.018 123.938 142.284 123.868 141.714C123.468 138.59 120.026 135.592 117.031 133.522C113.667 131.195 109.23 131.023 105.733 133.147C104.886 133.663 104.196 134.123 103.788 134.389C103.6 134.514 103.349 134.397 103.318 134.178C103.263 133.811 103.2 133.257 103.169 132.718C103.491 129.102 105.647 125.697 108.783 123.854C111.919 122.003 115.949 121.769 119.281 123.222C121.547 124.213 123.436 125.916 125.059 127.782C126.126 129.016 126.808 130.57 127.192 132.21C127.615 134.022 127.521 135.912 127.074 137.716L127.066 137.723ZM153.481 93.5076C149.247 97.2872 145.013 101.075 140.787 104.854C140.379 105.221 139.925 105.612 139.376 105.651C138.733 105.706 138.302 105.346 137.941 104.823C136.836 103.23 136.985 101.067 138.231 99.5831C140.881 96.4282 143.829 93.5154 147.02 90.8993C148.8 89.4468 150.854 88.0098 153.23 88.4237C154.069 88.5721 154.829 89.0875 155.143 89.8763C155.723 91.3132 154.547 92.5626 153.488 93.5076H153.481ZM162.395 106.611C161.101 105.62 160.999 103.753 160.937 102.137C160.725 96.6703 159.659 91.2429 157.785 86.1044C157.181 84.4566 156.044 82.5434 154.288 82.6918C153.684 82.7464 153.136 83.0588 152.61 83.3633C146.746 86.8384 141.367 91.1413 136.694 96.0924C135.691 95.2256 136.498 93.6091 137.369 92.6173C141.163 88.2754 145.632 84.5191 150.564 81.5125C151.858 80.7238 153.277 79.9585 154.798 80.0132C156.679 80.0757 158.334 81.4188 159.282 83.051C160.231 84.6753 160.592 86.5651 160.945 88.4081C161.368 90.6259 161.791 92.8516 162.215 95.0694C162.944 98.8959 163.665 102.933 162.387 106.611H162.395Z" fill="#260807"/>
</svg>
