<svg width="485" height="111" viewBox="0 0 485 111" fill="none" xmlns="http://www.w3.org/2000/svg">
<path d="M13.454 23.7214H0V37.5116H13.454V23.7214Z" fill="#260807"/>
<path d="M12.7818 45.0242H0.672363V107.815H12.7818V45.0242Z" fill="#260807"/>
<path d="M68.2316 45.6964C65.0498 44.0547 61.4459 43.2261 57.4121 43.2261C53.3782 43.2261 50.087 43.8046 47.3196 44.9616C44.5522 46.1186 42.3085 47.6195 40.5887 49.4488C38.8688 51.2782 37.5633 53.2404 36.6643 55.3355V45.0163H24.6643V107.807H36.6643V76.5211C36.6643 71.51 37.5086 67.3276 39.1893 63.9661C40.8701 60.6045 43.059 58.0638 45.7483 56.3439C48.4375 54.6241 51.2831 53.7641 54.2694 53.7641C57.4824 53.7641 59.9918 54.4599 61.7821 55.8358C63.5723 57.2195 64.8075 59.1661 65.4798 61.6677C66.1521 64.1693 66.4882 67.1478 66.4882 70.5797V107.807H78.4882V69.1178C78.4882 62.6918 77.5735 57.5869 75.7442 53.811C73.9149 50.0352 71.4055 47.3303 68.2316 45.6808V45.6964Z" fill="#260807"/>
<path d="M132.82 45.6964C129.638 44.0547 126.035 43.2261 122.001 43.2261C117.967 43.2261 114.676 43.8046 111.908 44.9616C109.141 46.1186 106.897 47.6195 105.177 49.4488C103.457 51.2782 102.152 53.2404 101.253 55.3355V45.0163H89.2529V107.807H101.253V76.5211C101.253 71.51 102.097 67.3276 103.778 63.9661C105.459 60.6045 107.648 58.0638 110.337 56.3439C113.026 54.6241 115.872 53.7641 118.858 53.7641C122.071 53.7641 124.58 54.4599 126.371 55.8358C128.161 57.2195 129.396 59.1661 130.068 61.6677C130.741 64.1693 131.077 67.1478 131.077 70.5797V107.807H143.077V69.1178C143.077 62.6918 142.162 57.5869 140.333 53.811C138.504 50.0352 135.994 47.3303 132.82 45.6808V45.6964Z" fill="#260807"/>
<path d="M205.195 52.9902C202.506 49.7772 199.285 47.3459 195.549 45.7042C191.812 44.0625 187.809 43.2339 183.549 43.2339C177.044 43.2339 171.4 44.6567 166.616 47.4945C161.831 50.34 158.11 54.2645 155.46 59.2677C152.802 64.2787 151.481 70.0325 151.481 76.5367C151.481 83.0409 152.81 88.6852 155.46 93.6962C158.11 98.7073 161.831 102.608 166.616 105.415C171.4 108.221 177.044 109.621 183.549 109.621C188.63 109.621 193.133 108.706 197.057 106.877C200.982 105.047 204.234 102.522 206.814 99.3092C209.393 96.0962 211.168 92.3203 212.137 87.9816H199.356C198.386 90.9757 196.612 93.493 194.032 95.549C191.452 97.605 187.958 98.6291 183.549 98.6291C179.139 98.6291 175.473 97.6754 172.557 95.7679C169.641 93.8604 167.452 91.2259 165.998 87.8643C165.013 85.5894 164.364 83.1191 164.052 80.4611H212.145C212.739 74.5588 212.403 69.3054 211.137 64.7087C209.862 60.112 207.885 56.2032 205.195 52.9902ZM172.573 57.1335C175.489 55.1869 179.147 54.2176 183.564 54.2176C187.379 54.2176 190.553 55.1166 193.094 56.9068C195.635 58.697 197.542 61.0735 198.816 64.0286C199.661 65.9986 200.169 68.1094 200.356 70.3608H164.403C164.771 68.5002 165.302 66.7413 166.022 65.0918C167.476 61.7302 169.665 59.0723 172.581 57.1335H172.573Z" fill="#260807"/>
<path d="M484.704 58.7519C484.212 57.5558 483.399 56.6411 482.265 56.0157C481.131 55.3903 479.927 55.1871 478.669 55.3981C477.402 55.6092 476.371 56.4066 475.565 57.7747C474.322 59.9792 472.821 62.5356 471.07 65.4593C469.319 68.3831 467.388 71.4241 465.277 74.5746C463.167 77.7329 461.009 80.7818 458.804 83.729C456.6 86.6762 454.411 89.342 452.261 91.7263C449.744 94.4547 447.618 96.4403 445.874 97.6833C444.131 98.9341 442.606 99.7315 441.309 100.075C440.003 100.427 438.69 100.584 437.369 100.545C436.251 100.513 435.023 100.099 433.687 99.2937C432.35 98.4885 431.388 97.0501 430.818 94.9784C430.247 92.9068 430.458 89.9596 431.466 86.1446L439.37 56.391L460.962 56.0157C462.565 55.9923 463.769 55.4607 464.566 54.4366C465.363 53.4125 465.739 52.2477 465.707 50.9578C465.668 49.6679 465.246 48.5343 464.433 47.5728C463.62 46.6112 462.408 46.1422 460.806 46.1656L442.044 46.5096L445.061 35.2758C445.452 33.7513 445.257 32.4536 444.483 31.3826C443.709 30.3116 442.677 29.5924 441.395 29.2093C440.113 28.8263 438.885 28.8966 437.72 29.4282C436.556 29.9598 435.743 31.0543 435.274 32.7194L431.552 46.7597L419.818 46.9786C418.208 47.0099 417.012 47.5337 416.214 48.5578C415.417 49.5819 415.042 50.7467 415.073 52.0366C415.104 53.3343 415.534 54.46 416.347 55.4216C417.16 56.3832 418.372 56.8522 419.975 56.8288L428.566 56.6333C427.315 58.9082 425.767 61.4489 423.915 64.2633C422.062 67.0776 420.061 69.9935 417.926 73.0111C415.784 76.0287 413.635 78.8899 411.469 81.587C409.304 84.2918 407.287 86.6606 405.418 88.7088C401.893 92.6644 398.836 95.4319 396.248 97.0032C393.661 98.5745 391.347 99.3328 389.33 99.2859C388.282 99.2546 387.196 98.8325 386.062 97.996C384.929 97.1674 384.162 95.7133 383.764 93.6416C383.365 91.57 383.67 88.6618 384.671 84.9172L396.639 39.9819L411.837 39.6458C413.439 39.6223 414.627 39.0907 415.386 38.0666C416.144 37.0425 416.504 35.8777 416.472 34.5878C416.433 33.2979 416.027 32.1644 415.253 31.2028C414.471 30.2412 413.283 29.7722 411.672 29.8035L399.305 30.1083L402.323 18.9761C402.714 17.4517 402.518 16.1696 401.744 15.1377C400.97 14.1058 399.938 13.3944 398.656 13.0113C397.374 12.6283 396.147 12.683 394.982 13.1755C393.817 13.668 393.004 14.7468 392.543 16.412L388.822 30.3507L377.08 30.6712C375.54 30.7025 374.375 31.2263 373.585 32.2582C372.788 33.2823 372.413 34.4471 372.444 35.737C372.475 37.0347 372.905 38.1604 373.718 39.122C374.531 40.0835 375.704 40.5526 377.244 40.5213L386.156 40.3337L381.817 56.5082C380.793 58.3766 379.511 60.6125 377.955 63.2157C376.095 66.3427 374.015 69.6417 371.725 73.1049C369.434 76.5759 367.073 79.9296 364.65 83.1817C362.226 86.4338 359.897 89.256 357.669 91.6403C355.011 94.5719 352.791 96.5576 351.016 97.5973C349.241 98.6371 347.795 99.1374 346.685 99.1061C346.474 99.1061 345.989 98.895 345.231 98.4885C344.473 98.082 343.863 97.2846 343.41 96.0807C342.948 94.8846 342.995 93.071 343.55 90.6397L348.741 68.3597C349.054 66.8978 348.882 65.6782 348.209 64.6776C347.537 63.6848 346.615 62.9812 345.434 62.559C344.254 62.1447 343.089 62.1291 341.924 62.5199C340.759 62.9108 339.884 63.7942 339.29 65.1779C338.398 67.1088 337.241 69.4385 335.811 72.159C334.38 74.8795 332.825 77.6 331.144 80.3127C329.463 83.0254 327.868 85.3472 326.352 87.2547C323.897 90.3348 321.341 92.555 318.69 93.9153C316.032 95.2755 313.664 95.9322 311.569 95.8775C309.473 95.8227 307.746 95.2364 306.589 94.1263C305.432 93.0162 304.642 91.6325 304.236 89.983C303.821 88.3335 303.642 86.6371 303.688 84.886C303.774 81.4697 304.603 78.03 306.159 74.5824C307.715 71.1349 309.841 67.9766 312.538 65.1154C315.235 62.2542 318.315 59.9636 321.778 58.2359C325.242 56.5082 328.97 55.703 332.95 55.8047C335.256 55.8672 337.703 56.2972 340.298 57.0946C342.894 57.8919 344.848 58.7362 346.153 59.604C347.459 60.4796 348.71 60.7219 349.906 60.331C351.102 59.9401 352.079 59.2209 352.845 58.1577C353.604 57.0946 353.932 55.9376 353.83 54.6711C353.721 53.4125 352.986 52.3102 351.61 51.3643C349.21 49.6991 346.38 48.4014 343.12 47.479C339.86 46.5565 336.561 46.0483 333.208 45.9624C329.408 45.8607 325.492 46.4001 321.888 47.604C318.284 48.8079 314.422 50.9109 311.123 53.0294C304.799 57.0946 300.077 63.0984 295.933 69.2821C291.939 75.2547 287.491 80.9694 282.597 86.426C278.852 90.585 275.764 93.4228 273.309 94.9315C270.863 96.4403 268.939 97.1752 267.54 97.1361C266.078 97.097 264.601 96.5498 263.131 95.5022C261.653 94.4547 260.254 92.7192 258.917 90.3114C261.739 89.2716 264.358 87.8019 266.782 85.9101C269.205 84.0182 271.394 81.8762 273.341 79.484C275.436 76.8886 276.906 74.043 277.758 70.9551C278.61 67.8671 278.735 64.9434 278.149 62.1682C277.554 59.3929 276.186 57.1102 274.037 55.3043C271.887 53.5063 268.853 52.5526 264.945 52.4509C260.481 52.3337 256.259 53.4828 252.288 55.8907C248.309 58.2985 244.564 61.5193 241.039 65.5453C240.319 66.2958 239.639 67.0776 238.99 67.8984C238.342 68.7193 237.724 69.5088 237.145 70.2593L241.328 54.6555L241.547 54.2412L251.272 38.7858C252.945 36.1044 254.579 33.0947 256.173 29.7487C257.76 26.4028 259.128 23.0022 260.262 19.539C261.403 16.0758 262.162 12.8863 262.553 9.9625C262.943 7.03873 262.81 4.6622 262.162 2.83289C261.513 1.00358 260.176 0.0576545 258.151 0.00293159C255.775 -0.0596089 253.554 0.878497 251.475 2.81725C249.396 4.75601 247.441 7.44524 245.604 10.885C243.767 14.3325 242.039 18.2491 240.429 22.6348C238.811 27.0282 237.31 31.6484 235.926 36.5031C234.542 41.3578 233.19 46.1734 231.884 50.9578L218.047 103.288C217.734 104.61 217.875 105.782 218.477 106.806C219.079 107.831 219.931 108.589 221.033 109.073C222.136 109.558 223.269 109.652 224.426 109.371C225.583 109.089 226.529 108.323 227.264 107.088C230.336 101.655 232.979 96.8547 235.183 92.6801C237.388 88.5133 239.514 84.7453 241.555 81.3759C243.595 78.0065 245.878 74.8873 248.403 72.0261C251.428 68.6176 254.352 66.1238 257.19 64.5603C260.02 62.9968 262.521 62.2385 264.687 62.2932C266.016 62.3245 267.118 62.7076 268.009 63.4268C268.9 64.146 269.237 65.3108 269.018 66.9134C268.799 68.516 267.642 70.6111 265.554 73.2144C264.179 74.9264 262.427 76.5055 260.301 77.944C258.167 79.3902 256.181 80.4691 254.352 81.1961C253.672 80.4143 252.835 79.7264 251.842 79.1401C250.842 78.5537 249.755 78.2489 248.567 78.2176C246.964 78.1785 245.635 78.7492 244.596 79.9453C243.548 81.1414 242.923 82.572 242.704 84.2449C242.485 85.9179 242.844 87.458 243.79 88.8807C244.728 90.3035 246.347 91.2182 248.645 91.6247C250.42 95.7915 252.859 99.3641 255.962 102.343C259.058 105.321 262.842 106.869 267.313 106.986C271.785 107.103 275.514 105.876 278.93 103.312C282.347 100.748 286.036 97.2846 289.992 92.9146C291.298 91.4762 292.564 90.0299 293.799 88.568C294.081 91.5231 294.784 94.0951 295.926 96.2605C297.552 99.3406 299.748 101.67 302.5 103.242C305.252 104.813 308.199 105.642 311.342 105.728C315.321 105.829 319.167 104.907 322.888 102.937C326.61 100.975 330.01 98.2149 333.106 94.6657C333.106 97.1126 333.544 99.411 334.388 101.561C335.24 103.711 336.64 105.462 338.602 106.806C340.556 108.151 343.175 108.862 346.451 108.948C350.078 109.042 353.369 108.081 356.324 106.064C359.271 104.047 362.187 101.467 365.064 98.3322C367.511 95.6038 370.02 92.5237 372.585 89.0996C373.038 88.4977 373.476 87.8879 373.921 87.286C373.718 88.8026 373.617 90.3035 373.609 91.7967C373.593 94.9081 374.101 97.7459 375.11 100.318C376.126 102.898 377.76 104.977 380.027 106.572C382.286 108.167 385.304 109.011 389.072 109.113C393.606 109.23 397.757 108.018 401.525 105.462C405.293 102.905 409.046 99.5517 412.79 95.3849C415.448 92.383 418.302 88.8964 421.343 84.9251C420.631 87.9817 420.24 90.9915 420.162 93.9543C420.084 96.9172 420.553 99.6221 421.577 102.061C422.594 104.5 424.345 106.462 426.815 107.963C429.293 109.457 432.725 110.27 437.119 110.379C440.605 110.473 444.209 109.589 447.922 107.729C451.636 105.868 455.474 102.757 459.43 98.3947C462.737 94.8534 465.95 90.882 469.061 86.4964C472.18 82.1107 475.049 77.8033 477.676 73.574C480.303 69.3447 482.492 65.6861 484.251 62.5903C485.056 61.2144 485.212 59.9245 484.72 58.7284L484.704 58.7519Z" fill="#260807"/>
</svg>
