<svg width="226" height="46" viewBox="0 0 226 46" fill="none" xmlns="http://www.w3.org/2000/svg">
<path d="M62.7097 12.3359C64.2994 7.43757 71.2294 7.43757 72.8191 12.3359C73.2624 13.7018 74.5361 14.627 75.9724 14.627C81.1253 14.6272 83.2553 21.2224 79.0945 24.249C77.9334 25.0939 77.447 26.5937 77.8904 27.96C79.4771 32.8498 73.8822 36.9405 69.7136 33.9082C68.5517 33.0631 66.9771 33.063 65.8152 33.9082C61.6467 36.94 56.0526 32.8497 57.6394 27.96C58.0829 26.5935 57.5957 25.0938 56.4343 24.249C52.2734 21.2223 54.4043 14.627 59.5574 14.627C60.9936 14.627 62.2663 13.7017 62.7097 12.3359Z" fill="#260807" stroke="#260807" stroke-width="2"/>
<path d="M17.5332 12.3359C19.1229 7.43757 26.0529 7.43757 27.6426 12.3359C28.0859 13.7018 29.3596 14.627 30.7959 14.627C35.9488 14.6272 38.0788 21.2224 33.918 24.249C32.7569 25.0939 32.2705 26.5937 32.7139 27.96C34.3006 32.8498 28.7057 36.9405 24.5371 33.9082C23.3751 33.0631 21.8006 33.063 20.6387 33.9082C16.4701 36.94 10.8761 32.8497 12.4629 27.96C12.9063 26.5935 12.4192 25.0938 11.2578 24.249C7.0969 21.2223 9.22777 14.627 14.3809 14.627C15.8171 14.627 17.0898 13.7017 17.5332 12.3359Z" fill="#260807" stroke="#260807" stroke-width="2"/>
<path d="M107.886 12.3359C109.476 7.43757 116.406 7.43757 117.995 12.3359C118.439 13.7018 119.713 14.627 121.149 14.627C126.302 14.6272 128.432 21.2224 124.271 24.249C123.11 25.0939 122.623 26.5937 123.067 27.96C124.654 32.8498 119.059 36.9405 114.89 33.9082C113.728 33.0631 112.154 33.063 110.992 33.9082C106.823 36.94 101.229 32.8497 102.816 27.96C103.259 26.5935 102.772 25.0938 101.611 24.249C97.4498 21.2223 99.5807 14.627 104.734 14.627C106.17 14.627 107.443 13.7017 107.886 12.3359Z" fill="#260807" stroke="#260807" stroke-width="2"/>
<path d="M153.063 12.3359C154.652 7.43757 161.582 7.43757 163.172 12.3359C163.615 13.7018 164.889 14.627 166.325 14.627C171.478 14.6272 173.608 21.2224 169.447 24.249C168.286 25.0939 167.8 26.5937 168.243 27.96C169.83 32.8498 164.235 36.9405 160.067 33.9082C158.905 33.0631 157.33 33.063 156.168 33.9082C152 36.94 146.406 32.8497 147.992 27.96C148.436 26.5935 147.949 25.0938 146.787 24.249C142.626 21.2223 144.757 14.627 149.91 14.627C151.346 14.627 152.619 13.7017 153.063 12.3359Z" fill="#260807" stroke="#260807" stroke-width="2"/>
<path d="M198.239 12.3359C199.829 7.43757 206.759 7.43757 208.348 12.3359C208.792 13.7018 210.065 14.627 211.502 14.627C216.655 14.6272 218.785 21.2224 214.624 24.249C213.463 25.0939 212.976 26.5937 213.42 27.96C215.006 32.8498 209.411 36.9405 205.243 33.9082C204.081 33.0631 202.506 33.063 201.344 33.9082C197.176 36.94 191.582 32.8497 193.169 27.96C193.612 26.5935 193.125 25.0938 191.964 24.249C187.803 21.2223 189.934 14.627 195.087 14.627C196.523 14.627 197.796 13.7017 198.239 12.3359Z" stroke="#260807" stroke-width="2"/>
</svg>
